<svg
    xmlns="http://www.w3.org/2000/svg"
    version="1.1"
    viewBox="0 0 70 70"
    fill="#ffffff"
>
    <path d="M50.118,15.019c-1.279,10.063-8.571,18.265-20.166,17.183c0.981-5.524,5.498-7.43,9.166-10.203    c-3.202,1.858-9.787,4.693-10.476,8.995c-0.711,4.436,1.279,17.537,11.746,31.506c0,0-7.215,0-8.001,0    c-5.638-19.475-5.282-29.099-4.679-34.209c0,0,0.281-1.518,0.486-2.22c0.058-0.195,0.123-0.384,0.188-0.573    c0.037-0.141,0.072-0.283,0.102-0.43c0.482-2.448-2.495-5.279-3.849-6.912c1.424,2.219,3.473,4.137,2.903,7.302    c-6.445-1.718-8.739-7.571-7.431-13.235c0.343-1.485,1.095-2.976,2.054-3.833c-0.582,2.095,1.068,3.593,2.426,4.912    c1.155,1.123,2.274,2.156,3.18,3.304c1.42,1.803,2.115,3.773,1.916,6.072c1.255-2.071,3.018-3.743,5.244-5.109    c2.175-1.333,4.631-2.349,7.203-3.49c3.021-1.341,6.628-2.796,6.94-6.578C50.123,9.482,50.455,12.378,50.118,15.019z"></path>
</svg>